<?xml version="1.0" encoding="us-ascii" standalone="no"?><svg xmlns="http://www.w3.org/2000/svg" xmlns:xlink="http://www.w3.org/1999/xlink" contentStyleType="text/css" height="1093px" preserveAspectRatio="none" style="width:611px;height:1093px;background:#FFFFFF;" version="1.1" viewBox="0 0 611 1093" width="611px" zoomAndPan="magnify"><defs/><g><ellipse cx="266.5" cy="20" fill="#222222" rx="10" ry="10" style="stroke:#222222;stroke-width:1.0;"/><rect fill="#F1F1F1" height="35.9609" rx="12.5" ry="12.5" style="stroke:#181818;stroke-width:0.5;" width="222" x="155.5" y="50"/><text fill="#000000" font-family="sans-serif" font-size="12" lengthAdjust="spacing" textLength="202" x="165.5" y="72.9492">&#1054;&#1078;&#1080;&#1076;&#1072;&#1085;&#1080;&#1077; &#1076;&#1077;&#1081;&#1089;&#1090;&#1074;&#1080;&#1103; (Sign up/Login)</text><polygon fill="#F1F1F1" points="245.5,105.9609,287.5,105.9609,299.5,117.9609,287.5,129.9609,245.5,129.9609,233.5,117.9609,245.5,105.9609" style="stroke:#181818;stroke-width:0.5;"/><text fill="#000000" font-family="sans-serif" font-size="11" lengthAdjust="spacing" textLength="42" x="245.5" y="122.5156">Sign up?</text><text fill="#000000" font-family="sans-serif" font-size="11" lengthAdjust="spacing" textLength="18" x="215.5" y="115.2002">yes</text><text fill="#000000" font-family="sans-serif" font-size="11" lengthAdjust="spacing" textLength="12" x="299.5" y="115.2002">no</text><rect fill="#F1F1F1" height="35.9609" rx="12.5" ry="12.5" style="stroke:#181818;stroke-width:0.5;" width="221" x="11" y="139.9609"/><text fill="#000000" font-family="sans-serif" font-size="12" lengthAdjust="spacing" textLength="201" x="21" y="162.9102">&#1057;&#1086;&#1079;&#1076;&#1072;&#1085;&#1080;&#1077; &#1082;&#1083;&#1080;&#1077;&#1085;&#1090;&#1072; (User/Specialist)</text><rect fill="#F1F1F1" height="35.9609" rx="12.5" ry="12.5" style="stroke:#181818;stroke-width:0.5;" width="158" x="42.5" y="195.9219"/><text fill="#000000" font-family="sans-serif" font-size="12" lengthAdjust="spacing" textLength="138" x="52.5" y="218.8711">&#1042;&#1086;&#1079;&#1074;&#1088;&#1072;&#1090; &#1074; &#1075;&#1083;&#1072;&#1074;&#1085;&#1086;&#1077; &#1084;&#1077;&#1085;&#1102;</text><rect fill="#F1F1F1" height="35.9609" rx="12.5" ry="12.5" style="stroke:#181818;stroke-width:0.5;" width="253" x="285" y="139.9609"/><text fill="#000000" font-family="sans-serif" font-size="12" lengthAdjust="spacing" textLength="233" x="295" y="162.9102">&#1055;&#1088;&#1086;&#1074;&#1077;&#1088;&#1082;&#1072; &#1089;&#1090;&#1072;&#1090;&#1091;&#1089;&#1072; (User/Specialist/Admin)</text><rect fill="#F1F1F1" height="35.9609" rx="12.5" ry="12.5" style="stroke:#181818;stroke-width:0.5;" width="319" x="252" y="195.9219"/><text fill="#000000" font-family="sans-serif" font-size="12" lengthAdjust="spacing" textLength="299" x="262" y="218.8711">&#1054;&#1090;&#1086;&#1073;&#1088;&#1072;&#1078;&#1077;&#1085;&#1080;&#1077; &#1075;&#1083;&#1072;&#1074;&#1085;&#1086;&#1075;&#1086; &#1084;&#1077;&#1085;&#1102; (User/Specialist/Admin)</text><rect fill="#F1F1F1" height="35.9609" rx="12.5" ry="12.5" style="stroke:#181818;stroke-width:0.5;" width="135" x="344" y="295.8828"/><text fill="#000000" font-family="sans-serif" font-size="12" lengthAdjust="spacing" textLength="115" x="354" y="318.832">&#1054;&#1078;&#1080;&#1076;&#1072;&#1085;&#1080;&#1077; &#1076;&#1077;&#1081;&#1089;&#1090;&#1074;&#1080;&#1103;</text><polygon fill="#F1F1F1" points="411.5,251.8828,423.5,263.8828,411.5,275.8828,399.5,263.8828,411.5,251.8828" style="stroke:#181818;stroke-width:0.5;"/><polygon fill="#F1F1F1" points="392,351.8438,431,351.8438,443,363.8438,431,375.8438,392,375.8438,380,363.8438,392,351.8438" style="stroke:#181818;stroke-width:0.5;"/><text fill="#000000" font-family="sans-serif" font-size="11" lengthAdjust="spacing" textLength="39" x="392" y="368.3984">Logout?</text><text fill="#000000" font-family="sans-serif" font-size="11" lengthAdjust="spacing" textLength="12" x="443" y="361.083">no</text><rect fill="#F1F1F1" height="35.9609" rx="12.5" ry="12.5" style="stroke:#181818;stroke-width:0.5;" width="158" x="332.5" y="395.8438"/><text fill="#000000" font-family="sans-serif" font-size="12" lengthAdjust="spacing" textLength="138" x="342.5" y="418.793">&#1042;&#1086;&#1079;&#1074;&#1088;&#1072;&#1090; &#1074; &#1075;&#1083;&#1072;&#1074;&#1085;&#1086;&#1077; &#1084;&#1077;&#1085;&#1102;</text><polygon fill="#F1F1F1" points="266.5,437.8047,278.5,449.8047,266.5,461.8047,254.5,449.8047,266.5,437.8047" style="stroke:#181818;stroke-width:0.5;"/><rect fill="#F1F1F1" height="35.9609" rx="12.5" ry="12.5" style="stroke:#181818;stroke-width:0.5;" width="222" x="155.5" y="525.8047"/><text fill="#000000" font-family="sans-serif" font-size="12" lengthAdjust="spacing" textLength="202" x="165.5" y="548.7539">&#1054;&#1078;&#1080;&#1076;&#1072;&#1085;&#1080;&#1077; &#1076;&#1077;&#1081;&#1089;&#1090;&#1074;&#1080;&#1103; (Sign up/Login)</text><polygon fill="#F1F1F1" points="245.5,581.7656,287.5,581.7656,299.5,593.7656,287.5,605.7656,245.5,605.7656,233.5,593.7656,245.5,581.7656" style="stroke:#181818;stroke-width:0.5;"/><text fill="#000000" font-family="sans-serif" font-size="11" lengthAdjust="spacing" textLength="42" x="245.5" y="598.3203">Sign up?</text><text fill="#000000" font-family="sans-serif" font-size="11" lengthAdjust="spacing" textLength="18" x="215.5" y="591.0049">yes</text><text fill="#000000" font-family="sans-serif" font-size="11" lengthAdjust="spacing" textLength="12" x="299.5" y="591.0049">no</text><rect fill="#F1F1F1" height="35.9609" rx="12.5" ry="12.5" style="stroke:#181818;stroke-width:0.5;" width="221" x="11" y="615.7656"/><text fill="#000000" font-family="sans-serif" font-size="12" lengthAdjust="spacing" textLength="201" x="21" y="638.7148">&#1057;&#1086;&#1079;&#1076;&#1072;&#1085;&#1080;&#1077; &#1082;&#1083;&#1080;&#1077;&#1085;&#1090;&#1072; (User/Specialist)</text><rect fill="#F1F1F1" height="35.9609" rx="12.5" ry="12.5" style="stroke:#181818;stroke-width:0.5;" width="158" x="42.5" y="671.7266"/><text fill="#000000" font-family="sans-serif" font-size="12" lengthAdjust="spacing" textLength="138" x="52.5" y="694.6758">&#1042;&#1086;&#1079;&#1074;&#1088;&#1072;&#1090; &#1074; &#1075;&#1083;&#1072;&#1074;&#1085;&#1086;&#1077; &#1084;&#1077;&#1085;&#1102;</text><rect fill="#F1F1F1" height="35.9609" rx="12.5" ry="12.5" style="stroke:#181818;stroke-width:0.5;" width="253" x="285" y="615.7656"/><text fill="#000000" font-family="sans-serif" font-size="12" lengthAdjust="spacing" textLength="233" x="295" y="638.7148">&#1055;&#1088;&#1086;&#1074;&#1077;&#1088;&#1082;&#1072; &#1089;&#1090;&#1072;&#1090;&#1091;&#1089;&#1072; (User/Specialist/Admin)</text><rect fill="#F1F1F1" height="35.9609" rx="12.5" ry="12.5" style="stroke:#181818;stroke-width:0.5;" width="319" x="252" y="671.7266"/><text fill="#000000" font-family="sans-serif" font-size="12" lengthAdjust="spacing" textLength="299" x="262" y="694.6758">&#1054;&#1090;&#1086;&#1073;&#1088;&#1072;&#1078;&#1077;&#1085;&#1080;&#1077; &#1075;&#1083;&#1072;&#1074;&#1085;&#1086;&#1075;&#1086; &#1084;&#1077;&#1085;&#1102; (User/Specialist/Admin)</text><rect fill="#F1F1F1" height="35.9609" rx="12.5" ry="12.5" style="stroke:#181818;stroke-width:0.5;" width="135" x="344" y="774.707"/><text fill="#000000" font-family="sans-serif" font-size="12" lengthAdjust="spacing" textLength="115" x="354" y="797.6563">&#1054;&#1078;&#1080;&#1076;&#1072;&#1085;&#1080;&#1077; &#1076;&#1077;&#1081;&#1089;&#1090;&#1074;&#1080;&#1103;</text><polygon fill="#F1F1F1" points="411.5,727.6875,423.5,739.6875,411.5,751.6875,399.5,739.6875,411.5,727.6875" style="stroke:#181818;stroke-width:0.5;"/><polygon fill="#F1F1F1" points="392,830.668,431,830.668,443,842.668,431,854.668,392,854.668,380,842.668,392,830.668" style="stroke:#181818;stroke-width:0.5;"/><text fill="#000000" font-family="sans-serif" font-size="11" lengthAdjust="spacing" textLength="39" x="392" y="847.2227">Logout?</text><text fill="#000000" font-family="sans-serif" font-size="11" lengthAdjust="spacing" textLength="12" x="443" y="839.9072">no</text><rect fill="#F1F1F1" height="35.9609" rx="12.5" ry="12.5" style="stroke:#181818;stroke-width:0.5;" width="158" x="332.5" y="874.668"/><text fill="#000000" font-family="sans-serif" font-size="12" lengthAdjust="spacing" textLength="138" x="342.5" y="897.6172">&#1042;&#1086;&#1079;&#1074;&#1088;&#1072;&#1090; &#1074; &#1075;&#1083;&#1072;&#1074;&#1085;&#1086;&#1077; &#1084;&#1077;&#1085;&#1102;</text><polygon fill="#F1F1F1" points="266.5,916.6289,278.5,928.6289,266.5,940.6289,254.5,928.6289,266.5,916.6289" style="stroke:#181818;stroke-width:0.5;"/><polygon fill="#F1F1F1" points="266.5,481.8047,278.5,493.8047,266.5,505.8047,254.5,493.8047,266.5,481.8047" style="stroke:#181818;stroke-width:0.5;"/><polygon fill="#F1F1F1" points="205,960.6289,328,960.6289,340,972.6289,328,984.6289,205,984.6289,193,972.6289,205,960.6289" style="stroke:#181818;stroke-width:0.5;"/><text fill="#000000" font-family="sans-serif" font-size="11" lengthAdjust="spacing" textLength="123" x="205" y="977.1836">&#1055;&#1088;&#1086;&#1075;&#1088;&#1072;&#1084;&#1084;&#1072; &#1085;&#1077; &#1079;&#1072;&#1082;&#1088;&#1099;&#1090;&#1072;?</text><text fill="#000000" font-family="sans-serif" font-size="11" lengthAdjust="spacing" textLength="12" x="340" y="969.8682">no</text><rect fill="#F1F1F1" height="35.9609" rx="12.5" ry="12.5" style="stroke:#181818;stroke-width:0.5;" width="56" x="238.5" y="1004.6289"/><text fill="#000000" font-family="sans-serif" font-size="12" lengthAdjust="spacing" textLength="36" x="248.5" y="1027.5781">&#1042;&#1099;&#1093;&#1086;&#1076;</text><ellipse cx="266.5" cy="1071.5898" fill="none" rx="11" ry="11" style="stroke:#222222;stroke-width:1.0;"/><ellipse cx="266.5" cy="1071.5898" fill="#222222" rx="6" ry="6" style="stroke:#222222;stroke-width:1.0;"/><line style="stroke:#181818;stroke-width:1.0;" x1="266.5" x2="266.5" y1="30" y2="50"/><polygon fill="#181818" points="262.5,40,266.5,50,270.5,40,266.5,44" style="stroke:#181818;stroke-width:1.0;"/><line style="stroke:#181818;stroke-width:1.0;" x1="121.5" x2="121.5" y1="175.9219" y2="195.9219"/><polygon fill="#181818" points="117.5,185.9219,121.5,195.9219,125.5,185.9219,121.5,189.9219" style="stroke:#181818;stroke-width:1.0;"/><line style="stroke:#181818;stroke-width:1.0;" x1="411.5" x2="411.5" y1="175.9219" y2="195.9219"/><polygon fill="#181818" points="407.5,185.9219,411.5,195.9219,415.5,185.9219,411.5,189.9219" style="stroke:#181818;stroke-width:1.0;"/><line style="stroke:#181818;stroke-width:1.0;" x1="411.5" x2="411.5" y1="275.8828" y2="295.8828"/><polygon fill="#181818" points="407.5,285.8828,411.5,295.8828,415.5,285.8828,411.5,289.8828" style="stroke:#181818;stroke-width:1.0;"/><line style="stroke:#181818;stroke-width:1.0;" x1="443" x2="491" y1="363.8438" y2="363.8438"/><polygon fill="#181818" points="487,323.8633,491,313.8633,495,323.8633,491,319.8633" style="stroke:#181818;stroke-width:1.0;"/><line style="stroke:#181818;stroke-width:1.0;" x1="491" x2="491" y1="263.8828" y2="363.8438"/><line style="stroke:#181818;stroke-width:1.0;" x1="491" x2="423.5" y1="263.8828" y2="263.8828"/><polygon fill="#181818" points="433.5,259.8828,423.5,263.8828,433.5,267.8828,429.5,263.8828" style="stroke:#181818;stroke-width:1.0;"/><line style="stroke:#181818;stroke-width:1.0;" x1="411.5" x2="411.5" y1="331.8438" y2="351.8438"/><polygon fill="#181818" points="407.5,341.8438,411.5,351.8438,415.5,341.8438,411.5,345.8438" style="stroke:#181818;stroke-width:1.0;"/><line style="stroke:#181818;stroke-width:1.0;" x1="411.5" x2="411.5" y1="231.8828" y2="251.8828"/><polygon fill="#181818" points="407.5,241.8828,411.5,251.8828,415.5,241.8828,411.5,245.8828" style="stroke:#181818;stroke-width:1.0;"/><line style="stroke:#181818;stroke-width:1.0;" x1="411.5" x2="411.5" y1="375.8438" y2="395.8438"/><polygon fill="#181818" points="407.5,385.8438,411.5,395.8438,415.5,385.8438,411.5,389.8438" style="stroke:#181818;stroke-width:1.0;"/><line style="stroke:#181818;stroke-width:1.0;" x1="233.5" x2="121.5" y1="117.9609" y2="117.9609"/><line style="stroke:#181818;stroke-width:1.0;" x1="121.5" x2="121.5" y1="117.9609" y2="139.9609"/><polygon fill="#181818" points="117.5,129.9609,121.5,139.9609,125.5,129.9609,121.5,133.9609" style="stroke:#181818;stroke-width:1.0;"/><line style="stroke:#181818;stroke-width:1.0;" x1="299.5" x2="411.5" y1="117.9609" y2="117.9609"/><line style="stroke:#181818;stroke-width:1.0;" x1="411.5" x2="411.5" y1="117.9609" y2="139.9609"/><polygon fill="#181818" points="407.5,129.9609,411.5,139.9609,415.5,129.9609,411.5,133.9609" style="stroke:#181818;stroke-width:1.0;"/><line style="stroke:#181818;stroke-width:1.0;" x1="121.5" x2="121.5" y1="231.8828" y2="449.8047"/><line style="stroke:#181818;stroke-width:1.0;" x1="121.5" x2="254.5" y1="449.8047" y2="449.8047"/><polygon fill="#181818" points="244.5,445.8047,254.5,449.8047,244.5,453.8047,248.5,449.8047" style="stroke:#181818;stroke-width:1.0;"/><line style="stroke:#181818;stroke-width:1.0;" x1="411.5" x2="411.5" y1="431.8047" y2="449.8047"/><line style="stroke:#181818;stroke-width:1.0;" x1="411.5" x2="278.5" y1="449.8047" y2="449.8047"/><polygon fill="#181818" points="288.5,445.8047,278.5,449.8047,288.5,453.8047,284.5,449.8047" style="stroke:#181818;stroke-width:1.0;"/><line style="stroke:#181818;stroke-width:1.0;" x1="266.5" x2="266.5" y1="85.9609" y2="105.9609"/><polygon fill="#181818" points="262.5,95.9609,266.5,105.9609,270.5,95.9609,266.5,99.9609" style="stroke:#181818;stroke-width:1.0;"/><line style="stroke:#181818;stroke-width:1.0;" x1="121.5" x2="121.5" y1="651.7266" y2="671.7266"/><polygon fill="#181818" points="117.5,661.7266,121.5,671.7266,125.5,661.7266,121.5,665.7266" style="stroke:#181818;stroke-width:1.0;"/><line style="stroke:#181818;stroke-width:1.0;" x1="411.5" x2="411.5" y1="651.7266" y2="671.7266"/><polygon fill="#181818" points="407.5,661.7266,411.5,671.7266,415.5,661.7266,411.5,665.7266" style="stroke:#181818;stroke-width:1.0;"/><line style="stroke:#181818;stroke-width:1.0;" x1="411.5" x2="411.5" y1="751.6875" y2="774.707"/><polygon fill="#181818" points="407.5,764.707,411.5,774.707,415.5,764.707,411.5,768.707" style="stroke:#181818;stroke-width:1.0;"/><line style="stroke:#181818;stroke-width:1.0;" x1="443" x2="491" y1="842.668" y2="842.668"/><polygon fill="#181818" points="487,802.6875,491,792.6875,495,802.6875,491,798.6875" style="stroke:#181818;stroke-width:1.0;"/><line style="stroke:#181818;stroke-width:1.0;" x1="491" x2="491" y1="739.6875" y2="842.668"/><line style="stroke:#181818;stroke-width:1.0;" x1="491" x2="423.5" y1="739.6875" y2="739.6875"/><polygon fill="#181818" points="433.5,735.6875,423.5,739.6875,433.5,743.6875,429.5,739.6875" style="stroke:#181818;stroke-width:1.0;"/><line style="stroke:#181818;stroke-width:1.0;" x1="411.5" x2="411.5" y1="810.668" y2="830.668"/><polygon fill="#181818" points="407.5,820.668,411.5,830.668,415.5,820.668,411.5,824.668" style="stroke:#181818;stroke-width:1.0;"/><line style="stroke:#181818;stroke-width:1.0;" x1="411.5" x2="411.5" y1="707.6875" y2="727.6875"/><polygon fill="#181818" points="407.5,717.6875,411.5,727.6875,415.5,717.6875,411.5,721.6875" style="stroke:#181818;stroke-width:1.0;"/><line style="stroke:#181818;stroke-width:1.0;" x1="411.5" x2="411.5" y1="854.668" y2="874.668"/><polygon fill="#181818" points="407.5,864.668,411.5,874.668,415.5,864.668,411.5,868.668" style="stroke:#181818;stroke-width:1.0;"/><line style="stroke:#181818;stroke-width:1.0;" x1="233.5" x2="121.5" y1="593.7656" y2="593.7656"/><line style="stroke:#181818;stroke-width:1.0;" x1="121.5" x2="121.5" y1="593.7656" y2="615.7656"/><polygon fill="#181818" points="117.5,605.7656,121.5,615.7656,125.5,605.7656,121.5,609.7656" style="stroke:#181818;stroke-width:1.0;"/><line style="stroke:#181818;stroke-width:1.0;" x1="299.5" x2="411.5" y1="593.7656" y2="593.7656"/><line style="stroke:#181818;stroke-width:1.0;" x1="411.5" x2="411.5" y1="593.7656" y2="615.7656"/><polygon fill="#181818" points="407.5,605.7656,411.5,615.7656,415.5,605.7656,411.5,609.7656" style="stroke:#181818;stroke-width:1.0;"/><line style="stroke:#181818;stroke-width:1.0;" x1="121.5" x2="121.5" y1="707.6875" y2="928.6289"/><line style="stroke:#181818;stroke-width:1.0;" x1="121.5" x2="254.5" y1="928.6289" y2="928.6289"/><polygon fill="#181818" points="244.5,924.6289,254.5,928.6289,244.5,932.6289,248.5,928.6289" style="stroke:#181818;stroke-width:1.0;"/><line style="stroke:#181818;stroke-width:1.0;" x1="411.5" x2="411.5" y1="910.6289" y2="928.6289"/><line style="stroke:#181818;stroke-width:1.0;" x1="411.5" x2="278.5" y1="928.6289" y2="928.6289"/><polygon fill="#181818" points="288.5,924.6289,278.5,928.6289,288.5,932.6289,284.5,928.6289" style="stroke:#181818;stroke-width:1.0;"/><line style="stroke:#181818;stroke-width:1.0;" x1="266.5" x2="266.5" y1="561.7656" y2="581.7656"/><polygon fill="#181818" points="262.5,571.7656,266.5,581.7656,270.5,571.7656,266.5,575.7656" style="stroke:#181818;stroke-width:1.0;"/><line style="stroke:#181818;stroke-width:1.0;" x1="266.5" x2="266.5" y1="505.8047" y2="525.8047"/><polygon fill="#181818" points="262.5,515.8047,266.5,525.8047,270.5,515.8047,266.5,519.8047" style="stroke:#181818;stroke-width:1.0;"/><line style="stroke:#181818;stroke-width:1.0;" x1="340" x2="585" y1="972.6289" y2="972.6289"/><polygon fill="#181818" points="581,754.707,585,744.707,589,754.707,585,750.707" style="stroke:#181818;stroke-width:1.0;"/><line style="stroke:#181818;stroke-width:1.0;" x1="585" x2="585" y1="493.8047" y2="972.6289"/><line style="stroke:#181818;stroke-width:1.0;" x1="585" x2="278.5" y1="493.8047" y2="493.8047"/><polygon fill="#181818" points="288.5,489.8047,278.5,493.8047,288.5,497.8047,284.5,493.8047" style="stroke:#181818;stroke-width:1.0;"/><line style="stroke:#181818;stroke-width:1.0;" x1="266.5" x2="266.5" y1="940.6289" y2="960.6289"/><polygon fill="#181818" points="262.5,950.6289,266.5,960.6289,270.5,950.6289,266.5,954.6289" style="stroke:#181818;stroke-width:1.0;"/><line style="stroke:#181818;stroke-width:1.0;" x1="266.5" x2="266.5" y1="461.8047" y2="481.8047"/><polygon fill="#181818" points="262.5,471.8047,266.5,481.8047,270.5,471.8047,266.5,475.8047" style="stroke:#181818;stroke-width:1.0;"/><line style="stroke:#181818;stroke-width:1.0;" x1="266.5" x2="266.5" y1="984.6289" y2="1004.6289"/><polygon fill="#181818" points="262.5,994.6289,266.5,1004.6289,270.5,994.6289,266.5,998.6289" style="stroke:#181818;stroke-width:1.0;"/><line style="stroke:#181818;stroke-width:1.0;" x1="266.5" x2="266.5" y1="1040.5898" y2="1060.5898"/><polygon fill="#181818" points="262.5,1050.5898,266.5,1060.5898,270.5,1050.5898,266.5,1054.5898" style="stroke:#181818;stroke-width:1.0;"/><!--SRC=[hLD1Ji905DtFAVwoNR67XN7lZdW08WDCKjk66MBS0SQLYIOS0ECDAb11X9xXpury7RIKn22WcSNyJkUzz_zx6MqQNID4bSVynWkUSS9hx2cXJFdT3koG9xomJ-JLLJkaNbovYDegz6j2g5PnUEQJwSYGl5kfVK5KvHVEU5xcM_97Nl0QZ0bvbrfsA_LONgb6eBG1NuuQETJ4zZcnG-89yHIm12siyGSiAyVmM1Coq9AyCDgeFGEHuLQAVGbwrpSex9qT_A1MEMzUknbox1XNCtxDDU51-jrlMNZAMI6zZwmhOzamA1plBuvk0NJJKG6cWRDHpy1BfRUZ7M59s5Gj8OecJWcLQ4-gf-Pwt1X4vMp_bku_vxkJyA4P7v3o2HQvh7U9ltoQkabNM0a12TmStqlRjm-vRILXFFiH3ky1cjM4Db4iFW40]--></g></svg>