<?xml version="1.0" encoding="us-ascii" standalone="no"?><svg xmlns="http://www.w3.org/2000/svg" xmlns:xlink="http://www.w3.org/1999/xlink" contentStyleType="text/css" height="894px" preserveAspectRatio="none" style="width:559px;height:894px;background:#FFFFFF;" version="1.1" viewBox="0 0 559 894" width="559px" zoomAndPan="magnify"><defs/><g><ellipse cx="254.5" cy="20" fill="#222222" rx="10" ry="10" style="stroke:#222222;stroke-width:1.0;"/><rect fill="#F1F1F1" height="67.8828" rx="12.5" ry="12.5" style="stroke:#181818;stroke-width:0.5;" width="278" x="115.5" y="50"/><text fill="#000000" font-family="sans-serif" font-size="12" lengthAdjust="spacing" textLength="149" x="125.5" y="72.9492">&#1055;&#1088;&#1086;&#1074;&#1077;&#1088;&#1082;&#1072; &#1089;&#1090;&#1072;&#1090;&#1091;&#1089;&#1072; &#1082;&#1083;&#1080;&#1077;&#1085;&#1090;&#1072;</text><text fill="#000000" font-family="sans-serif" font-size="12" lengthAdjust="spacing" textLength="170" x="125.5" y="88.9102">if (isClient == User?) then (yes)</text><text fill="#000000" font-family="sans-serif" font-size="12" lengthAdjust="spacing" textLength="252" x="131.5" y="104.8711">:&#1054;&#1090;&#1086;&#1073;&#1088;&#1072;&#1078;&#1077;&#1085;&#1080;&#1077; &#1075;&#1083;&#1072;&#1074;&#1085;&#1086;&#1075;&#1086; &#1084;&#1077;&#1085;&#1102; &#1087;&#1086;&#1083;&#1100;&#1079;&#1086;&#1074;&#1072;&#1090;&#1077;&#1083;&#1103;</text><rect fill="#F1F1F1" height="35.9609" rx="12.5" ry="12.5" style="stroke:#181818;stroke-width:0.5;" width="164" x="172.5" y="137.8828"/><text fill="#000000" font-family="sans-serif" font-size="12" lengthAdjust="spacing" textLength="144" x="182.5" y="160.832">&#1054;&#1078;&#1080;&#1076;&#1072;&#1085;&#1080;&#1077; &#1074;&#1099;&#1073;&#1086;&#1088;&#1072; &#1086;&#1087;&#1094;&#1080;&#1080;</text><rect fill="#F1F1F1" height="35.9609" rx="12.5" ry="12.5" style="stroke:#181818;stroke-width:0.5;" width="140" x="184.5" y="243.1592"/><text fill="#000000" font-family="sans-serif" font-size="12" lengthAdjust="spacing" textLength="120" x="194.5" y="266.1084">&#1042;&#1074;&#1086;&#1076; &#1089;&#1087;&#1077;&#1094;&#1080;&#1072;&#1083;&#1080;&#1079;&#1072;&#1094;&#1080;&#1080;</text><rect fill="#F1F1F1" height="51.9219" rx="12.5" ry="12.5" style="stroke:#181818;stroke-width:0.5;" width="249" x="130" y="299.1201"/><text fill="#000000" font-family="sans-serif" font-size="12" lengthAdjust="spacing" textLength="226" x="140" y="322.0693">&#1055;&#1086;&#1080;&#1089;&#1082; &#1089;&#1087;&#1077;&#1094;&#1080;&#1072;&#1083;&#1080;&#1089;&#1090;&#1086;&#1074; &#1087;&#1086; &#1089;&#1087;&#1077;&#1094;&#1080;&#1072;&#1083;&#1080;&#1079;&#1072;&#1094;&#1080;&#1080;</text><text fill="#000000" font-family="sans-serif" font-size="12" lengthAdjust="spacing" textLength="201" x="140" y="338.0303">(&#1089; &#1091;&#1095;&#1077;&#1090;&#1086;&#1084; &#1092;&#1080;&#1083;&#1100;&#1090;&#1088;&#1086;&#1074; &#1080;&#1079; &#1088;&#1072;&#1079;&#1076;&#1077;&#1083;&#1072; 2.4)</text><polygon fill="#F1F1F1" points="193.5,371.042,315.5,371.042,327.5,383.042,315.5,395.042,193.5,395.042,181.5,383.042,193.5,371.042" style="stroke:#181818;stroke-width:0.5;"/><text fill="#000000" font-family="sans-serif" font-size="11" lengthAdjust="spacing" textLength="122" x="193.5" y="387.5967">&#1057;&#1087;&#1077;&#1094;&#1080;&#1072;&#1083;&#1080;&#1089;&#1090;&#1099; &#1085;&#1072;&#1081;&#1076;&#1077;&#1085;&#1099;?</text><text fill="#000000" font-family="sans-serif" font-size="11" lengthAdjust="spacing" textLength="18" x="163.5" y="380.2813">yes</text><text fill="#000000" font-family="sans-serif" font-size="11" lengthAdjust="spacing" textLength="12" x="327.5" y="380.2813">no</text><rect fill="#F1F1F1" height="35.9609" rx="12.5" ry="12.5" style="stroke:#181818;stroke-width:0.5;" width="223" x="11" y="405.042"/><text fill="#000000" font-family="sans-serif" font-size="12" lengthAdjust="spacing" textLength="203" x="21" y="427.9912">&#1054;&#1090;&#1086;&#1073;&#1088;&#1072;&#1078;&#1077;&#1085;&#1080;&#1077; &#1089;&#1087;&#1080;&#1089;&#1082;&#1072; &#1089;&#1087;&#1077;&#1094;&#1080;&#1072;&#1083;&#1080;&#1089;&#1090;&#1086;&#1074;</text><rect fill="#F1F1F1" height="35.9609" rx="12.5" ry="12.5" style="stroke:#181818;stroke-width:0.5;" width="149" x="48" y="510.3184"/><text fill="#000000" font-family="sans-serif" font-size="12" lengthAdjust="spacing" textLength="129" x="58" y="533.2676">&#1043;&#1077;&#1085;&#1077;&#1088;&#1072;&#1094;&#1080;&#1103; XML &#1086;&#1090;&#1095;&#1077;&#1090;&#1072;</text><polygon fill="#F1F1F1" points="47.5,461.0029,197.5,461.0029,209.5,473.0029,197.5,485.0029,47.5,485.0029,35.5,473.0029,47.5,461.0029" style="stroke:#181818;stroke-width:0.5;"/><text fill="#000000" font-family="sans-serif" font-size="11" lengthAdjust="spacing" textLength="18" x="126.5" y="496.873">yes</text><text fill="#000000" font-family="sans-serif" font-size="11" lengthAdjust="spacing" textLength="150" x="47.5" y="477.5576">&#1053;&#1072;&#1078;&#1072;&#1090;&#1072; &#1082;&#1085;&#1086;&#1087;&#1082;&#1072; "Save report"?</text><polygon fill="#F1F1F1" points="122.5,566.2793,134.5,578.2793,122.5,590.2793,110.5,578.2793,122.5,566.2793" style="stroke:#181818;stroke-width:0.5;"/><rect fill="#F1F1F1" height="35.9609" rx="12.5" ry="12.5" style="stroke:#181818;stroke-width:0.5;" width="265" x="254" y="405.042"/><text fill="#000000" font-family="sans-serif" font-size="12" lengthAdjust="spacing" textLength="245" x="264" y="427.9912">&#1057;&#1086;&#1086;&#1073;&#1097;&#1077;&#1085;&#1080;&#1077; "No matching specialists found"</text><polygon fill="#F1F1F1" points="254.5,596.2793,266.5,608.2793,254.5,620.2793,242.5,608.2793,254.5,596.2793" style="stroke:#181818;stroke-width:0.5;"/><rect fill="#F1F1F1" height="35.9609" rx="12.5" ry="12.5" style="stroke:#181818;stroke-width:0.5;" width="241" x="134" y="689.5947"/><text fill="#000000" font-family="sans-serif" font-size="12" lengthAdjust="spacing" textLength="221" x="144" y="712.5439">&#1042;&#1086;&#1079;&#1074;&#1088;&#1072;&#1090; &#1074; &#1075;&#1083;&#1072;&#1074;&#1085;&#1086;&#1077; &#1084;&#1077;&#1085;&#1102; &#1087;&#1086;&#1083;&#1100;&#1079;&#1086;&#1074;&#1072;&#1090;&#1077;&#1083;&#1103;</text><ellipse cx="254.5" cy="764.0752" fill="none" rx="11" ry="11" style="stroke:#222222;stroke-width:1.0;"/><ellipse cx="254.5" cy="764.0752" fill="#222222" rx="6" ry="6" style="stroke:#222222;stroke-width:1.0;"/><polygon fill="#F1F1F1" points="196,640.2793,313,640.2793,325,652.2793,313,664.2793,196,664.2793,184,652.2793,196,640.2793" style="stroke:#181818;stroke-width:0.5;"/><text fill="#000000" font-family="sans-serif" font-size="11" lengthAdjust="spacing" textLength="18" x="258.5" y="676.1494">yes</text><text fill="#000000" font-family="sans-serif" font-size="11" lengthAdjust="spacing" textLength="117" x="196" y="656.834">&#1053;&#1072;&#1078;&#1072;&#1090;&#1072; &#1082;&#1085;&#1086;&#1087;&#1082;&#1072; "Back"?</text><polygon fill="#F1F1F1" points="173.5,193.8438,335.5,193.8438,347.5,205.8438,335.5,217.8438,173.5,217.8438,161.5,205.8438,173.5,193.8438" style="stroke:#181818;stroke-width:0.5;"/><text fill="#000000" font-family="sans-serif" font-size="11" lengthAdjust="spacing" textLength="18" x="258.5" y="229.7139">yes</text><text fill="#000000" font-family="sans-serif" font-size="11" lengthAdjust="spacing" textLength="162" x="173.5" y="210.3984">&#1053;&#1072;&#1078;&#1072;&#1090;&#1072; &#1082;&#1085;&#1086;&#1087;&#1082;&#1072; "Find Specialist"?</text><polygon fill="#F1F1F1" points="254.5,817.0752,266.5,829.0752,254.5,841.0752,242.5,829.0752,254.5,817.0752" style="stroke:#181818;stroke-width:0.5;"/><ellipse cx="254.5" cy="872.0752" fill="none" rx="11" ry="11" style="stroke:#222222;stroke-width:1.0;"/><ellipse cx="254.5" cy="872.0752" fill="#222222" rx="6" ry="6" style="stroke:#222222;stroke-width:1.0;"/><line style="stroke:#181818;stroke-width:1.0;" x1="254.5" x2="254.5" y1="30" y2="50"/><polygon fill="#181818" points="250.5,40,254.5,50,258.5,40,254.5,44" style="stroke:#181818;stroke-width:1.0;"/><line style="stroke:#181818;stroke-width:1.0;" x1="254.5" x2="254.5" y1="117.8828" y2="137.8828"/><polygon fill="#181818" points="250.5,127.8828,254.5,137.8828,258.5,127.8828,254.5,131.8828" style="stroke:#181818;stroke-width:1.0;"/><line style="stroke:#181818;stroke-width:1.0;" x1="254.5" x2="254.5" y1="279.1201" y2="299.1201"/><polygon fill="#181818" points="250.5,289.1201,254.5,299.1201,258.5,289.1201,254.5,293.1201" style="stroke:#181818;stroke-width:1.0;"/><line style="stroke:#181818;stroke-width:1.0;" x1="122.5" x2="122.5" y1="485.0029" y2="510.3184"/><polygon fill="#181818" points="118.5,500.3184,122.5,510.3184,126.5,500.3184,122.5,504.3184" style="stroke:#181818;stroke-width:1.0;"/><line style="stroke:#181818;stroke-width:1.0;" x1="209.5" x2="221.5" y1="473.0029" y2="473.0029"/><polygon fill="#181818" points="217.5,518.2988,221.5,528.2988,225.5,518.2988,221.5,522.2988" style="stroke:#181818;stroke-width:1.0;"/><line style="stroke:#181818;stroke-width:1.0;" x1="221.5" x2="221.5" y1="473.0029" y2="578.2793"/><line style="stroke:#181818;stroke-width:1.0;" x1="221.5" x2="134.5" y1="578.2793" y2="578.2793"/><polygon fill="#181818" points="144.5,574.2793,134.5,578.2793,144.5,582.2793,140.5,578.2793" style="stroke:#181818;stroke-width:1.0;"/><line style="stroke:#181818;stroke-width:1.0;" x1="122.5" x2="122.5" y1="546.2793" y2="566.2793"/><polygon fill="#181818" points="118.5,556.2793,122.5,566.2793,126.5,556.2793,122.5,560.2793" style="stroke:#181818;stroke-width:1.0;"/><line style="stroke:#181818;stroke-width:1.0;" x1="122.5" x2="122.5" y1="441.0029" y2="461.0029"/><polygon fill="#181818" points="118.5,451.0029,122.5,461.0029,126.5,451.0029,122.5,455.0029" style="stroke:#181818;stroke-width:1.0;"/><line style="stroke:#181818;stroke-width:1.0;" x1="181.5" x2="122.5" y1="383.042" y2="383.042"/><line style="stroke:#181818;stroke-width:1.0;" x1="122.5" x2="122.5" y1="383.042" y2="405.042"/><polygon fill="#181818" points="118.5,395.042,122.5,405.042,126.5,395.042,122.5,399.042" style="stroke:#181818;stroke-width:1.0;"/><line style="stroke:#181818;stroke-width:1.0;" x1="327.5" x2="386.5" y1="383.042" y2="383.042"/><line style="stroke:#181818;stroke-width:1.0;" x1="386.5" x2="386.5" y1="383.042" y2="405.042"/><polygon fill="#181818" points="382.5,395.042,386.5,405.042,390.5,395.042,386.5,399.042" style="stroke:#181818;stroke-width:1.0;"/><line style="stroke:#181818;stroke-width:1.0;" x1="122.5" x2="122.5" y1="590.2793" y2="608.2793"/><line style="stroke:#181818;stroke-width:1.0;" x1="122.5" x2="242.5" y1="608.2793" y2="608.2793"/><polygon fill="#181818" points="232.5,604.2793,242.5,608.2793,232.5,612.2793,236.5,608.2793" style="stroke:#181818;stroke-width:1.0;"/><line style="stroke:#181818;stroke-width:1.0;" x1="386.5" x2="386.5" y1="441.0029" y2="608.2793"/><line style="stroke:#181818;stroke-width:1.0;" x1="386.5" x2="266.5" y1="608.2793" y2="608.2793"/><polygon fill="#181818" points="276.5,604.2793,266.5,608.2793,276.5,612.2793,272.5,608.2793" style="stroke:#181818;stroke-width:1.0;"/><line style="stroke:#181818;stroke-width:1.0;" x1="254.5" x2="254.5" y1="351.042" y2="371.042"/><polygon fill="#181818" points="250.5,361.042,254.5,371.042,258.5,361.042,254.5,365.042" style="stroke:#181818;stroke-width:1.0;"/><line style="stroke:#181818;stroke-width:1.0;" x1="254.5" x2="254.5" y1="725.5557" y2="753.0752"/><polygon fill="#181818" points="250.5,743.0752,254.5,753.0752,258.5,743.0752,254.5,747.0752" style="stroke:#181818;stroke-width:1.0;"/><line style="stroke:#181818;stroke-width:1.0;" x1="254.5" x2="254.5" y1="664.2793" y2="689.5947"/><polygon fill="#181818" points="250.5,679.5947,254.5,689.5947,258.5,679.5947,254.5,683.5947" style="stroke:#181818;stroke-width:1.0;"/><line style="stroke:#181818;stroke-width:1.0;" x1="325" x2="385" y1="652.2793" y2="652.2793"/><polygon fill="#181818" points="381,723.0752,385,733.0752,389,723.0752,385,727.0752" style="stroke:#181818;stroke-width:1.0;"/><line style="stroke:#181818;stroke-width:1.0;" x1="385" x2="385" y1="652.2793" y2="797.0752"/><line style="stroke:#181818;stroke-width:1.0;" x1="385" x2="254.5" y1="797.0752" y2="797.0752"/><line style="stroke:#181818;stroke-width:1.0;" x1="254.5" x2="254.5" y1="797.0752" y2="817.0752"/><polygon fill="#181818" points="250.5,807.0752,254.5,817.0752,258.5,807.0752,254.5,811.0752" style="stroke:#181818;stroke-width:1.0;"/><line style="stroke:#181818;stroke-width:1.0;" x1="254.5" x2="254.5" y1="620.2793" y2="640.2793"/><polygon fill="#181818" points="250.5,630.2793,254.5,640.2793,258.5,630.2793,254.5,634.2793" style="stroke:#181818;stroke-width:1.0;"/><line style="stroke:#181818;stroke-width:1.0;" x1="254.5" x2="254.5" y1="217.8438" y2="243.1592"/><polygon fill="#181818" points="250.5,233.1592,254.5,243.1592,258.5,233.1592,254.5,237.1592" style="stroke:#181818;stroke-width:1.0;"/><line style="stroke:#181818;stroke-width:1.0;" x1="347.5" x2="533" y1="205.8438" y2="205.8438"/><polygon fill="#181818" points="529,506.1729,533,516.1729,537,506.1729,533,510.1729" style="stroke:#181818;stroke-width:1.0;"/><line style="stroke:#181818;stroke-width:1.0;" x1="533" x2="533" y1="205.8438" y2="829.0752"/><line style="stroke:#181818;stroke-width:1.0;" x1="533" x2="266.5" y1="829.0752" y2="829.0752"/><polygon fill="#181818" points="276.5,825.0752,266.5,829.0752,276.5,833.0752,272.5,829.0752" style="stroke:#181818;stroke-width:1.0;"/><line style="stroke:#181818;stroke-width:1.0;" x1="254.5" x2="254.5" y1="173.8438" y2="193.8438"/><polygon fill="#181818" points="250.5,183.8438,254.5,193.8438,258.5,183.8438,254.5,187.8438" style="stroke:#181818;stroke-width:1.0;"/><line style="stroke:#181818;stroke-width:1.0;" x1="254.5" x2="254.5" y1="841.0752" y2="861.0752"/><polygon fill="#181818" points="250.5,851.0752,254.5,861.0752,258.5,851.0752,254.5,855.0752" style="stroke:#181818;stroke-width:1.0;"/><!--SRC=[ZLF1Jjj04BtlLunoIYuzL3qHHPLQgIVQ2wh4eHShsO3Lr8wo1eaRIH6eIjL8z5mGVs08RW8XpY_C_b7VZ8kXILJmnTxTD-_DUpjsIT1BZDdWSt_8ELznXlSjf-JxVi2f7_YlleybzcOyvOpdict2DbL3zxOJsYYXHeC-EjjxNQDarqPKFR2kPeWs-0pOd2_1cF9lgHK6uZ6eKaZDSJZcdFXEUNyGBx0pyzzvegr07GSpFweNRE2OyZLA__9S-I5VSYxqX8A5FyR-LC3I7lzILI7HzaLjeTOgxyAeHLjTsmo3JkYIodBdedQA1dA-HWweofGwrGWce2o517aEt1ImsnMiPWWdQkm_JFGfgle-8UeJ0AJaZlmHJf05Rk2mu401QPGJX919XlJonQjQqOOwlbYLzqE2yvHlj6RkXwjU2nVhxqfxLdCw4kljrKkQ9tBV2lOjzMmtxgtB_BwJdwekSwZn-15jlz_41SDC4K_w86YZLjWkLhRZB5MZ-B6f2sYBgM-beSg7cBu4INCtZ7R8bIFWg1tlHQrAtPWbsgTTlGcQdvVi_EFd5D09XbNy34Xkyl4Fa3rl_Cl79N5toRuHlVBJ687y0G00]--></g></svg>