<?xml version="1.0" encoding="us-ascii" standalone="no"?><svg xmlns="http://www.w3.org/2000/svg" xmlns:xlink="http://www.w3.org/1999/xlink" contentStyleType="text/css" height="1034px" preserveAspectRatio="none" style="width:763px;height:1034px;background:#FFFFFF;" version="1.1" viewBox="0 0 763 1034" width="763px" zoomAndPan="magnify"><defs/><g><!--class Person--><g id="elem_Person"><rect codeLine="2" fill="#F1F1F1" height="141.1055" id="Person" rx="2.5" ry="2.5" style="stroke:#181818;stroke-width:0.5;" width="304" x="269" y="447"/><ellipse cx="394.25" cy="463" fill="#ADD1B2" rx="11" ry="11" style="stroke:#181818;stroke-width:1.0;"/><path d="M397.0156,458.875 Q397.1719,458.6563 397.3594,458.5469 Q397.5469,458.4375 397.7656,458.4375 Q398.1406,458.4375 398.375,458.7031 Q398.6094,458.9531 398.6094,459.5625 L398.6094,461.0156 Q398.6094,461.625 398.375,461.8906 Q398.1406,462.1563 397.7656,462.1563 Q397.4219,462.1563 397.2188,461.9531 Q397.0156,461.7656 396.9063,461.25 Q396.8594,460.8906 396.6719,460.7031 Q396.3438,460.3281 395.7344,460.1094 Q395.125,459.8906 394.5,459.8906 Q393.7344,459.8906 393.0938,460.2188 Q392.4688,460.5469 391.9688,461.2969 Q391.4844,462.0469 391.4844,463.0781 L391.4844,464.1719 Q391.4844,465.4063 392.375,466.2344 Q393.2656,467.0469 394.8594,467.0469 Q395.7969,467.0469 396.4531,466.7969 Q396.8438,466.6406 397.2656,466.2031 Q397.5313,465.9375 397.6719,465.8594 Q397.8281,465.7813 398.0313,465.7813 Q398.3594,465.7813 398.6094,466.0469 Q398.875,466.2969 398.875,466.6406 Q398.875,466.9844 398.5313,467.3906 Q398.0313,467.9688 397.2344,468.2969 Q396.1563,468.75 394.8594,468.75 Q393.3438,468.75 392.1406,468.125 Q391.1563,467.625 390.4688,466.5625 Q389.7813,465.4844 389.7813,464.2031 L389.7813,463.0469 Q389.7813,461.7188 390.3906,460.5781 Q391.0156,459.4219 392.1094,458.8125 Q393.2031,458.1875 394.4375,458.1875 Q395.1719,458.1875 395.8125,458.3594 Q396.4688,458.5156 397.0156,458.875 Z " fill="#000000"/><text fill="#000000" font-family="sans-serif" font-size="14" lengthAdjust="spacing" textLength="45" x="414.75" y="468.7969">Person</text><line style="stroke:#181818;stroke-width:0.5;" x1="270" x2="572" y1="479" y2="479"/><rect fill="none" height="6" style="stroke:#C82930;stroke-width:1.0;" width="6" x="277" y="490.8105"/><text fill="#000000" font-family="sans-serif" font-size="14" lengthAdjust="spacing" textLength="125" x="289" y="498.1074">std::string firstName</text><rect fill="none" height="6" style="stroke:#C82930;stroke-width:1.0;" width="6" x="277" y="509.4316"/><text fill="#000000" font-family="sans-serif" font-size="14" lengthAdjust="spacing" textLength="124" x="289" y="516.7285">std::string lastName</text><rect fill="none" height="6" style="stroke:#C82930;stroke-width:1.0;" width="6" x="277" y="528.0527"/><text fill="#000000" font-family="sans-serif" font-size="14" lengthAdjust="spacing" textLength="126" x="289" y="535.3496">std::string password</text><line style="stroke:#181818;stroke-width:0.5;" x1="270" x2="572" y1="542.8633" y2="542.8633"/><ellipse cx="280" cy="557.6738" fill="#84BE84" rx="3" ry="3" style="stroke:#038048;stroke-width:1.0;"/><text fill="#000000" font-family="sans-serif" font-size="14" lengthAdjust="spacing" textLength="143" x="289" y="561.9707">operator&lt;(other) const</text><ellipse cx="280" cy="576.2949" fill="#84BE84" rx="3" ry="3" style="stroke:#038048;stroke-width:1.0;"/><text fill="#000000" font-family="sans-serif" font-size="14" lengthAdjust="spacing" textLength="278" x="289" y="580.5918">friend std::ostream&amp; operator&lt;&lt;(os, person)</text></g><!--class User--><g id="elem_User"><rect codeLine="10" fill="#F1F1F1" height="141.1055" id="User" rx="2.5" ry="2.5" style="stroke:#181818;stroke-width:0.5;" width="188" x="172" y="648"/><ellipse cx="247.25" cy="664" fill="#ADD1B2" rx="11" ry="11" style="stroke:#181818;stroke-width:1.0;"/><path d="M250.0156,659.875 Q250.1719,659.6563 250.3594,659.5469 Q250.5469,659.4375 250.7656,659.4375 Q251.1406,659.4375 251.375,659.7031 Q251.6094,659.9531 251.6094,660.5625 L251.6094,662.0156 Q251.6094,662.625 251.375,662.8906 Q251.1406,663.1563 250.7656,663.1563 Q250.4219,663.1563 250.2188,662.9531 Q250.0156,662.7656 249.9063,662.25 Q249.8594,661.8906 249.6719,661.7031 Q249.3438,661.3281 248.7344,661.1094 Q248.125,660.8906 247.5,660.8906 Q246.7344,660.8906 246.0938,661.2188 Q245.4688,661.5469 244.9688,662.2969 Q244.4844,663.0469 244.4844,664.0781 L244.4844,665.1719 Q244.4844,666.4063 245.375,667.2344 Q246.2656,668.0469 247.8594,668.0469 Q248.7969,668.0469 249.4531,667.7969 Q249.8438,667.6406 250.2656,667.2031 Q250.5313,666.9375 250.6719,666.8594 Q250.8281,666.7813 251.0313,666.7813 Q251.3594,666.7813 251.6094,667.0469 Q251.875,667.2969 251.875,667.6406 Q251.875,667.9844 251.5313,668.3906 Q251.0313,668.9688 250.2344,669.2969 Q249.1563,669.75 247.8594,669.75 Q246.3438,669.75 245.1406,669.125 Q244.1563,668.625 243.4688,667.5625 Q242.7813,666.4844 242.7813,665.2031 L242.7813,664.0469 Q242.7813,662.7188 243.3906,661.5781 Q244.0156,660.4219 245.1094,659.8125 Q246.2031,659.1875 247.4375,659.1875 Q248.1719,659.1875 248.8125,659.3594 Q249.4688,659.5156 250.0156,659.875 Z " fill="#000000"/><text fill="#000000" font-family="sans-serif" font-size="14" lengthAdjust="spacing" textLength="29" x="267.75" y="669.7969">User</text><line style="stroke:#181818;stroke-width:0.5;" x1="173" x2="359" y1="680" y2="680"/><line style="stroke:#181818;stroke-width:0.5;" x1="173" x2="359" y1="688" y2="688"/><ellipse cx="183" cy="702.8105" fill="#84BE84" rx="3" ry="3" style="stroke:#038048;stroke-width:1.0;"/><text fill="#000000" font-family="sans-serif" font-size="14" lengthAdjust="spacing" textLength="162" x="192" y="707.1074">getAverageRating() const</text><ellipse cx="183" cy="721.4316" fill="#84BE84" rx="3" ry="3" style="stroke:#038048;stroke-width:1.0;"/><text fill="#000000" font-family="sans-serif" font-size="14" lengthAdjust="spacing" textLength="120" x="192" y="725.7285">getAddress() const</text><ellipse cx="183" cy="740.0527" fill="#84BE84" rx="3" ry="3" style="stroke:#038048;stroke-width:1.0;"/><text fill="#000000" font-family="sans-serif" font-size="14" lengthAdjust="spacing" textLength="140" x="192" y="744.3496">getContactInfo() const</text><ellipse cx="183" cy="758.6738" fill="#84BE84" rx="3" ry="3" style="stroke:#038048;stroke-width:1.0;"/><text fill="#000000" font-family="sans-serif" font-size="14" lengthAdjust="spacing" textLength="116" x="192" y="762.9707">getRatings() const</text><ellipse cx="183" cy="777.2949" fill="#84BE84" rx="3" ry="3" style="stroke:#038048;stroke-width:1.0;"/><text fill="#000000" font-family="sans-serif" font-size="14" lengthAdjust="spacing" textLength="120" x="192" y="781.5918">getReviews() const</text></g><!--class Specialist--><g id="elem_Specialist"><rect codeLine="18" fill="#F1F1F1" height="141.1055" id="Specialist" rx="2.5" ry="2.5" style="stroke:#181818;stroke-width:0.5;" width="270" x="7" y="867.5"/><ellipse cx="107.75" cy="883.5" fill="#ADD1B2" rx="11" ry="11" style="stroke:#181818;stroke-width:1.0;"/><path d="M110.5156,879.375 Q110.6719,879.1563 110.8594,879.0469 Q111.0469,878.9375 111.2656,878.9375 Q111.6406,878.9375 111.875,879.2031 Q112.1094,879.4531 112.1094,880.0625 L112.1094,881.5156 Q112.1094,882.125 111.875,882.3906 Q111.6406,882.6563 111.2656,882.6563 Q110.9219,882.6563 110.7188,882.4531 Q110.5156,882.2656 110.4063,881.75 Q110.3594,881.3906 110.1719,881.2031 Q109.8438,880.8281 109.2344,880.6094 Q108.625,880.3906 108,880.3906 Q107.2344,880.3906 106.5938,880.7188 Q105.9688,881.0469 105.4688,881.7969 Q104.9844,882.5469 104.9844,883.5781 L104.9844,884.6719 Q104.9844,885.9063 105.875,886.7344 Q106.7656,887.5469 108.3594,887.5469 Q109.2969,887.5469 109.9531,887.2969 Q110.3438,887.1406 110.7656,886.7031 Q111.0313,886.4375 111.1719,886.3594 Q111.3281,886.2813 111.5313,886.2813 Q111.8594,886.2813 112.1094,886.5469 Q112.375,886.7969 112.375,887.1406 Q112.375,887.4844 112.0313,887.8906 Q111.5313,888.4688 110.7344,888.7969 Q109.6563,889.25 108.3594,889.25 Q106.8438,889.25 105.6406,888.625 Q104.6563,888.125 103.9688,887.0625 Q103.2813,885.9844 103.2813,884.7031 L103.2813,883.5469 Q103.2813,882.2188 103.8906,881.0781 Q104.5156,879.9219 105.6094,879.3125 Q106.7031,878.6875 107.9375,878.6875 Q108.6719,878.6875 109.3125,878.8594 Q109.9688,879.0156 110.5156,879.375 Z " fill="#000000"/><text fill="#000000" font-family="sans-serif" font-size="14" lengthAdjust="spacing" textLength="60" x="128.25" y="889.2969">Specialist</text><line style="stroke:#181818;stroke-width:0.5;" x1="8" x2="276" y1="899.5" y2="899.5"/><line style="stroke:#181818;stroke-width:0.5;" x1="8" x2="276" y1="907.5" y2="907.5"/><ellipse cx="18" cy="922.3105" fill="#84BE84" rx="3" ry="3" style="stroke:#038048;stroke-width:1.0;"/><text fill="#000000" font-family="sans-serif" font-size="14" lengthAdjust="spacing" textLength="244" x="27" y="926.6074">loadFromStatement(sqlite3_stmt* stmt)</text><ellipse cx="18" cy="940.9316" fill="#84BE84" rx="3" ry="3" style="stroke:#038048;stroke-width:1.0;"/><text fill="#000000" font-family="sans-serif" font-size="14" lengthAdjust="spacing" textLength="181" x="27" y="945.2285">addCertification(certification)</text><ellipse cx="18" cy="959.5527" fill="#84BE84" rx="3" ry="3" style="stroke:#038048;stroke-width:1.0;"/><text fill="#000000" font-family="sans-serif" font-size="14" lengthAdjust="spacing" textLength="154" x="27" y="963.8496">getSpecialization() const</text><ellipse cx="18" cy="978.1738" fill="#84BE84" rx="3" ry="3" style="stroke:#038048;stroke-width:1.0;"/><text fill="#000000" font-family="sans-serif" font-size="14" lengthAdjust="spacing" textLength="150" x="27" y="982.4707">getCertifications() const</text><ellipse cx="18" cy="996.7949" fill="#84BE84" rx="3" ry="3" style="stroke:#038048;stroke-width:1.0;"/><text fill="#000000" font-family="sans-serif" font-size="14" lengthAdjust="spacing" textLength="199" x="27" y="1001.0918">setSpecialization(specialization)</text></g><!--class Admin--><g id="elem_Admin"><rect codeLine="26" fill="#F1F1F1" height="141.1055" id="Admin" rx="2.5" ry="2.5" style="stroke:#181818;stroke-width:0.5;" width="361" x="395.5" y="648"/><ellipse cx="552.25" cy="664" fill="#ADD1B2" rx="11" ry="11" style="stroke:#181818;stroke-width:1.0;"/><path d="M555.0156,659.875 Q555.1719,659.6563 555.3594,659.5469 Q555.5469,659.4375 555.7656,659.4375 Q556.1406,659.4375 556.375,659.7031 Q556.6094,659.9531 556.6094,660.5625 L556.6094,662.0156 Q556.6094,662.625 556.375,662.8906 Q556.1406,663.1563 555.7656,663.1563 Q555.4219,663.1563 555.2188,662.9531 Q555.0156,662.7656 554.9063,662.25 Q554.8594,661.8906 554.6719,661.7031 Q554.3438,661.3281 553.7344,661.1094 Q553.125,660.8906 552.5,660.8906 Q551.7344,660.8906 551.0938,661.2188 Q550.4688,661.5469 549.9688,662.2969 Q549.4844,663.0469 549.4844,664.0781 L549.4844,665.1719 Q549.4844,666.4063 550.375,667.2344 Q551.2656,668.0469 552.8594,668.0469 Q553.7969,668.0469 554.4531,667.7969 Q554.8438,667.6406 555.2656,667.2031 Q555.5313,666.9375 555.6719,666.8594 Q555.8281,666.7813 556.0313,666.7813 Q556.3594,666.7813 556.6094,667.0469 Q556.875,667.2969 556.875,667.6406 Q556.875,667.9844 556.5313,668.3906 Q556.0313,668.9688 555.2344,669.2969 Q554.1563,669.75 552.8594,669.75 Q551.3438,669.75 550.1406,669.125 Q549.1563,668.625 548.4688,667.5625 Q547.7813,666.4844 547.7813,665.2031 L547.7813,664.0469 Q547.7813,662.7188 548.3906,661.5781 Q549.0156,660.4219 550.1094,659.8125 Q551.2031,659.1875 552.4375,659.1875 Q553.1719,659.1875 553.8125,659.3594 Q554.4688,659.5156 555.0156,659.875 Z " fill="#000000"/><text fill="#000000" font-family="sans-serif" font-size="14" lengthAdjust="spacing" textLength="39" x="572.75" y="669.7969">Admin</text><line style="stroke:#181818;stroke-width:0.5;" x1="396.5" x2="755.5" y1="680" y2="680"/><rect fill="none" height="6" style="stroke:#C82930;stroke-width:1.0;" width="6" x="403.5" y="691.8105"/><text fill="#000000" font-family="sans-serif" font-size="14" lengthAdjust="spacing" textLength="208" x="415.5" y="699.1074">std::vector&lt;std::string&gt; privileges</text><line style="stroke:#181818;stroke-width:0.5;" x1="396.5" x2="755.5" y1="706.6211" y2="706.6211"/><ellipse cx="406.5" cy="721.4316" fill="#84BE84" rx="3" ry="3" style="stroke:#038048;stroke-width:1.0;"/><text fill="#000000" font-family="sans-serif" font-size="14" lengthAdjust="spacing" textLength="310" x="415.5" y="725.7285">Admin(firstName, lastName, password, privileges)</text><ellipse cx="406.5" cy="740.0527" fill="#84BE84" rx="3" ry="3" style="stroke:#038048;stroke-width:1.0;"/><text fill="#000000" font-family="sans-serif" font-size="14" lengthAdjust="spacing" textLength="41" x="415.5" y="744.3496">input()</text><ellipse cx="406.5" cy="758.6738" fill="#84BE84" rx="3" ry="3" style="stroke:#038048;stroke-width:1.0;"/><text fill="#000000" font-family="sans-serif" font-size="14" lengthAdjust="spacing" textLength="92" x="415.5" y="762.9707">display() const</text><ellipse cx="406.5" cy="777.2949" fill="#84BE84" rx="3" ry="3" style="stroke:#038048;stroke-width:1.0;"/><text fill="#000000" font-family="sans-serif" font-size="14" lengthAdjust="spacing" textLength="335" x="415.5" y="781.5918">bindToStatement(sqlite3_stmt* stmt, int&amp; index) const</text></g><!--class Address--><g id="elem_Address"><rect codeLine="34" fill="#F1F1F1" height="178.3477" id="Address" rx="2.5" ry="2.5" style="stroke:#181818;stroke-width:0.5;" width="156" x="312" y="849"/><ellipse cx="359.75" cy="865" fill="#ADD1B2" rx="11" ry="11" style="stroke:#181818;stroke-width:1.0;"/><path d="M362.5156,860.875 Q362.6719,860.6563 362.8594,860.5469 Q363.0469,860.4375 363.2656,860.4375 Q363.6406,860.4375 363.875,860.7031 Q364.1094,860.9531 364.1094,861.5625 L364.1094,863.0156 Q364.1094,863.625 363.875,863.8906 Q363.6406,864.1563 363.2656,864.1563 Q362.9219,864.1563 362.7188,863.9531 Q362.5156,863.7656 362.4063,863.25 Q362.3594,862.8906 362.1719,862.7031 Q361.8438,862.3281 361.2344,862.1094 Q360.625,861.8906 360,861.8906 Q359.2344,861.8906 358.5938,862.2188 Q357.9688,862.5469 357.4688,863.2969 Q356.9844,864.0469 356.9844,865.0781 L356.9844,866.1719 Q356.9844,867.4063 357.875,868.2344 Q358.7656,869.0469 360.3594,869.0469 Q361.2969,869.0469 361.9531,868.7969 Q362.3438,868.6406 362.7656,868.2031 Q363.0313,867.9375 363.1719,867.8594 Q363.3281,867.7813 363.5313,867.7813 Q363.8594,867.7813 364.1094,868.0469 Q364.375,868.2969 364.375,868.6406 Q364.375,868.9844 364.0313,869.3906 Q363.5313,869.9688 362.7344,870.2969 Q361.6563,870.75 360.3594,870.75 Q358.8438,870.75 357.6406,870.125 Q356.6563,869.625 355.9688,868.5625 Q355.2813,867.4844 355.2813,866.2031 L355.2813,865.0469 Q355.2813,863.7188 355.8906,862.5781 Q356.5156,861.4219 357.6094,860.8125 Q358.7031,860.1875 359.9375,860.1875 Q360.6719,860.1875 361.3125,860.3594 Q361.9688,860.5156 362.5156,860.875 Z " fill="#000000"/><text fill="#000000" font-family="sans-serif" font-size="14" lengthAdjust="spacing" textLength="52" x="380.25" y="870.7969">Address</text><line style="stroke:#181818;stroke-width:0.5;" x1="313" x2="467" y1="881" y2="881"/><rect fill="none" height="6" style="stroke:#C82930;stroke-width:1.0;" width="6" x="320" y="892.8105"/><text fill="#000000" font-family="sans-serif" font-size="14" lengthAdjust="spacing" textLength="113" x="332" y="900.1074">std::string country</text><rect fill="none" height="6" style="stroke:#C82930;stroke-width:1.0;" width="6" x="320" y="911.4316"/><text fill="#000000" font-family="sans-serif" font-size="14" lengthAdjust="spacing" textLength="106" x="332" y="918.7285">std::string region</text><rect fill="none" height="6" style="stroke:#C82930;stroke-width:1.0;" width="6" x="320" y="930.0527"/><text fill="#000000" font-family="sans-serif" font-size="14" lengthAdjust="spacing" textLength="87" x="332" y="937.3496">std::string city</text><rect fill="none" height="6" style="stroke:#C82930;stroke-width:1.0;" width="6" x="320" y="948.6738"/><text fill="#000000" font-family="sans-serif" font-size="14" lengthAdjust="spacing" textLength="102" x="332" y="955.9707">std::string street</text><rect fill="none" height="6" style="stroke:#C82930;stroke-width:1.0;" width="6" x="320" y="967.2949"/><text fill="#000000" font-family="sans-serif" font-size="14" lengthAdjust="spacing" textLength="105" x="332" y="974.5918">std::string house</text><rect fill="none" height="6" style="stroke:#C82930;stroke-width:1.0;" width="6" x="320" y="985.916"/><text fill="#000000" font-family="sans-serif" font-size="14" lengthAdjust="spacing" textLength="130" x="332" y="993.2129">std::string apartment</text><line style="stroke:#181818;stroke-width:0.5;" x1="313" x2="467" y1="1000.7266" y2="1000.7266"/><ellipse cx="323" cy="1015.5371" fill="#84BE84" rx="3" ry="3" style="stroke:#038048;stroke-width:1.0;"/><text fill="#000000" font-family="sans-serif" font-size="14" lengthAdjust="spacing" textLength="62" x="332" y="1019.834">Address()</text></g><!--class Database--><g id="elem_Database"><rect codeLine="44" fill="#F1F1F1" height="159.7266" id="Database" rx="2.5" ry="2.5" style="stroke:#181818;stroke-width:0.5;" width="187" x="232.5" y="227"/><ellipse cx="291.25" cy="243" fill="#ADD1B2" rx="11" ry="11" style="stroke:#181818;stroke-width:1.0;"/><path d="M294.0156,238.875 Q294.1719,238.6563 294.3594,238.5469 Q294.5469,238.4375 294.7656,238.4375 Q295.1406,238.4375 295.375,238.7031 Q295.6094,238.9531 295.6094,239.5625 L295.6094,241.0156 Q295.6094,241.625 295.375,241.8906 Q295.1406,242.1563 294.7656,242.1563 Q294.4219,242.1563 294.2188,241.9531 Q294.0156,241.7656 293.9063,241.25 Q293.8594,240.8906 293.6719,240.7031 Q293.3438,240.3281 292.7344,240.1094 Q292.125,239.8906 291.5,239.8906 Q290.7344,239.8906 290.0938,240.2188 Q289.4688,240.5469 288.9688,241.2969 Q288.4844,242.0469 288.4844,243.0781 L288.4844,244.1719 Q288.4844,245.4063 289.375,246.2344 Q290.2656,247.0469 291.8594,247.0469 Q292.7969,247.0469 293.4531,246.7969 Q293.8438,246.6406 294.2656,246.2031 Q294.5313,245.9375 294.6719,245.8594 Q294.8281,245.7813 295.0313,245.7813 Q295.3594,245.7813 295.6094,246.0469 Q295.875,246.2969 295.875,246.6406 Q295.875,246.9844 295.5313,247.3906 Q295.0313,247.9688 294.2344,248.2969 Q293.1563,248.75 291.8594,248.75 Q290.3438,248.75 289.1406,248.125 Q288.1563,247.625 287.4688,246.5625 Q286.7813,245.4844 286.7813,244.2031 L286.7813,243.0469 Q286.7813,241.7188 287.3906,240.5781 Q288.0156,239.4219 289.1094,238.8125 Q290.2031,238.1875 291.4375,238.1875 Q292.1719,238.1875 292.8125,238.3594 Q293.4688,238.5156 294.0156,238.875 Z " fill="#000000"/><text fill="#000000" font-family="sans-serif" font-size="14" lengthAdjust="spacing" textLength="61" x="311.75" y="248.7969">Database</text><line style="stroke:#181818;stroke-width:0.5;" x1="233.5" x2="418.5" y1="259" y2="259"/><rect fill="none" height="6" style="stroke:#C82930;stroke-width:1.0;" width="6" x="240.5" y="270.8105"/><text fill="#000000" font-family="sans-serif" font-size="14" lengthAdjust="spacing" textLength="66" x="252.5" y="278.1074">sqlite3* db</text><line style="stroke:#181818;stroke-width:0.5;" x1="233.5" x2="418.5" y1="285.6211" y2="285.6211"/><ellipse cx="243.5" cy="300.4316" fill="#84BE84" rx="3" ry="3" style="stroke:#038048;stroke-width:1.0;"/><text fill="#000000" font-family="sans-serif" font-size="14" lengthAdjust="spacing" textLength="71" x="252.5" y="304.7285">Database()</text><ellipse cx="243.5" cy="319.0527" fill="#84BE84" rx="3" ry="3" style="stroke:#038048;stroke-width:1.0;"/><text fill="#000000" font-family="sans-serif" font-size="14" lengthAdjust="spacing" textLength="79" x="252.5" y="323.3496">~Database()</text><ellipse cx="243.5" cy="337.6738" fill="#84BE84" rx="3" ry="3" style="stroke:#038048;stroke-width:1.0;"/><text fill="#000000" font-family="sans-serif" font-size="14" lengthAdjust="spacing" textLength="120" x="252.5" y="341.9707">initializeDatabase()</text><ellipse cx="243.5" cy="356.2949" fill="#84BE84" rx="3" ry="3" style="stroke:#038048;stroke-width:1.0;"/><text fill="#000000" font-family="sans-serif" font-size="14" lengthAdjust="spacing" textLength="161" x="252.5" y="360.5918">saveToDatabase(people)</text><ellipse cx="243.5" cy="374.916" fill="#84BE84" rx="3" ry="3" style="stroke:#038048;stroke-width:1.0;"/><text fill="#000000" font-family="sans-serif" font-size="14" lengthAdjust="spacing" textLength="131" x="252.5" y="379.2129">loadFromDatabase()</text></g><!--class MainWindow--><g id="elem_MainWindow"><rect codeLine="53" fill="#F1F1F1" height="159.7266" id="MainWindow" rx="2.5" ry="2.5" style="stroke:#181818;stroke-width:0.5;" width="205" x="223.5" y="7"/><ellipse cx="282.25" cy="23" fill="#ADD1B2" rx="11" ry="11" style="stroke:#181818;stroke-width:1.0;"/><path d="M285.0156,18.875 Q285.1719,18.6563 285.3594,18.5469 Q285.5469,18.4375 285.7656,18.4375 Q286.1406,18.4375 286.375,18.7031 Q286.6094,18.9531 286.6094,19.5625 L286.6094,21.0156 Q286.6094,21.625 286.375,21.8906 Q286.1406,22.1563 285.7656,22.1563 Q285.4219,22.1563 285.2188,21.9531 Q285.0156,21.7656 284.9063,21.25 Q284.8594,20.8906 284.6719,20.7031 Q284.3438,20.3281 283.7344,20.1094 Q283.125,19.8906 282.5,19.8906 Q281.7344,19.8906 281.0938,20.2188 Q280.4688,20.5469 279.9688,21.2969 Q279.4844,22.0469 279.4844,23.0781 L279.4844,24.1719 Q279.4844,25.4063 280.375,26.2344 Q281.2656,27.0469 282.8594,27.0469 Q283.7969,27.0469 284.4531,26.7969 Q284.8438,26.6406 285.2656,26.2031 Q285.5313,25.9375 285.6719,25.8594 Q285.8281,25.7813 286.0313,25.7813 Q286.3594,25.7813 286.6094,26.0469 Q286.875,26.2969 286.875,26.6406 Q286.875,26.9844 286.5313,27.3906 Q286.0313,27.9688 285.2344,28.2969 Q284.1563,28.75 282.8594,28.75 Q281.3438,28.75 280.1406,28.125 Q279.1563,27.625 278.4688,26.5625 Q277.7813,25.4844 277.7813,24.2031 L277.7813,23.0469 Q277.7813,21.7188 278.3906,20.5781 Q279.0156,19.4219 280.1094,18.8125 Q281.2031,18.1875 282.4375,18.1875 Q283.1719,18.1875 283.8125,18.3594 Q284.4688,18.5156 285.0156,18.875 Z " fill="#000000"/><text fill="#000000" font-family="sans-serif" font-size="14" lengthAdjust="spacing" textLength="79" x="302.75" y="28.7969">MainWindow</text><line style="stroke:#181818;stroke-width:0.5;" x1="224.5" x2="427.5" y1="39" y2="39"/><rect fill="none" height="6" style="stroke:#C82930;stroke-width:1.0;" width="6" x="231.5" y="50.8105"/><text fill="#000000" font-family="sans-serif" font-size="14" lengthAdjust="spacing" textLength="90" x="243.5" y="58.1074">Database&amp; db</text><rect fill="none" height="6" style="stroke:#C82930;stroke-width:1.0;" width="6" x="231.5" y="69.4316"/><text fill="#000000" font-family="sans-serif" font-size="14" lengthAdjust="spacing" textLength="130" x="243.5" y="76.7285">QLabel* outputLabel</text><rect fill="none" height="6" style="stroke:#C82930;stroke-width:1.0;" width="6" x="231.5" y="88.0527"/><text fill="#000000" font-family="sans-serif" font-size="14" lengthAdjust="spacing" textLength="168" x="243.5" y="95.3496">QVBoxLayout* mainLayout</text><rect fill="none" height="6" style="stroke:#C82930;stroke-width:1.0;" width="6" x="231.5" y="106.6738"/><text fill="#000000" font-family="sans-serif" font-size="14" lengthAdjust="spacing" textLength="179" x="243.5" y="113.9707">std::vector&lt;Person*&gt; people</text><line style="stroke:#181818;stroke-width:0.5;" x1="224.5" x2="427.5" y1="121.4844" y2="121.4844"/><ellipse cx="234.5" cy="136.2949" fill="#84BE84" rx="3" ry="3" style="stroke:#038048;stroke-width:1.0;"/><text fill="#000000" font-family="sans-serif" font-size="14" lengthAdjust="spacing" textLength="105" x="243.5" y="140.5918">MainWindow(db)</text><ellipse cx="234.5" cy="154.916" fill="#84BE84" rx="3" ry="3" style="stroke:#038048;stroke-width:1.0;"/><text fill="#000000" font-family="sans-serif" font-size="14" lengthAdjust="spacing" textLength="97" x="243.5" y="159.2129">~MainWindow()</text></g><!--class Authentication--><g id="elem_Authentication"><rect codeLine="62" fill="#F1F1F1" height="85.2422" id="Authentication" rx="2.5" ry="2.5" style="stroke:#181818;stroke-width:0.5;" width="122" x="455" y="264.5"/><ellipse cx="470" cy="280.5" fill="#ADD1B2" rx="11" ry="11" style="stroke:#181818;stroke-width:1.0;"/><path d="M472.7656,276.375 Q472.9219,276.1563 473.1094,276.0469 Q473.2969,275.9375 473.5156,275.9375 Q473.8906,275.9375 474.125,276.2031 Q474.3594,276.4531 474.3594,277.0625 L474.3594,278.5156 Q474.3594,279.125 474.125,279.3906 Q473.8906,279.6563 473.5156,279.6563 Q473.1719,279.6563 472.9688,279.4531 Q472.7656,279.2656 472.6563,278.75 Q472.6094,278.3906 472.4219,278.2031 Q472.0938,277.8281 471.4844,277.6094 Q470.875,277.3906 470.25,277.3906 Q469.4844,277.3906 468.8438,277.7188 Q468.2188,278.0469 467.7188,278.7969 Q467.2344,279.5469 467.2344,280.5781 L467.2344,281.6719 Q467.2344,282.9063 468.125,283.7344 Q469.0156,284.5469 470.6094,284.5469 Q471.5469,284.5469 472.2031,284.2969 Q472.5938,284.1406 473.0156,283.7031 Q473.2813,283.4375 473.4219,283.3594 Q473.5781,283.2813 473.7813,283.2813 Q474.1094,283.2813 474.3594,283.5469 Q474.625,283.7969 474.625,284.1406 Q474.625,284.4844 474.2813,284.8906 Q473.7813,285.4688 472.9844,285.7969 Q471.9063,286.25 470.6094,286.25 Q469.0938,286.25 467.8906,285.625 Q466.9063,285.125 466.2188,284.0625 Q465.5313,282.9844 465.5313,281.7031 L465.5313,280.5469 Q465.5313,279.2188 466.1406,278.0781 Q466.7656,276.9219 467.8594,276.3125 Q468.9531,275.6875 470.1875,275.6875 Q470.9219,275.6875 471.5625,275.8594 Q472.2188,276.0156 472.7656,276.375 Z " fill="#000000"/><text fill="#000000" font-family="sans-serif" font-size="14" lengthAdjust="spacing" textLength="90" x="484" y="286.2969">Authentication</text><line style="stroke:#181818;stroke-width:0.5;" x1="456" x2="576" y1="296.5" y2="296.5"/><line style="stroke:#181818;stroke-width:0.5;" x1="456" x2="576" y1="304.5" y2="304.5"/><ellipse cx="466" cy="319.3105" fill="#84BE84" rx="3" ry="3" style="stroke:#038048;stroke-width:1.0;"/><text fill="#000000" font-family="sans-serif" font-size="14" lengthAdjust="spacing" textLength="40" x="475" y="323.6074">login()</text><ellipse cx="466" cy="337.9316" fill="#84BE84" rx="3" ry="3" style="stroke:#038048;stroke-width:1.0;"/><text fill="#000000" font-family="sans-serif" font-size="14" lengthAdjust="spacing" textLength="75" x="475" y="342.2285">sendEmail()</text></g><!--reverse link Person to User--><g id="link_Person_User"><path codeLine="67" d="M355.7305,602.3016 C340.6305,621.6916 335.28,628.55 320.18,647.94 " fill="none" id="Person-backto-User" style="stroke:#181818;stroke-width:1.0;"/><polygon fill="none" points="366.79,588.1,350.9966,598.6151,360.4643,605.9881,366.79,588.1" style="stroke:#181818;stroke-width:1.0;"/></g><!--reverse link User to Specialist--><g id="link_User_Specialist"><path codeLine="68" d="M217.3377,804.8588 C203.1077,829.8288 195.97,842.33 181.73,867.31 " fill="none" id="User-backto-Specialist" style="stroke:#181818;stroke-width:1.0;"/><polygon fill="none" points="226.25,789.22,212.1248,801.888,222.5506,807.8295,226.25,789.22" style="stroke:#181818;stroke-width:1.0;"/></g><!--reverse link Person to Admin--><g id="link_Person_Admin"><path codeLine="69" d="M486.2695,602.3016 C501.3695,621.6916 506.72,628.55 521.82,647.94 " fill="none" id="Person-backto-Admin" style="stroke:#181818;stroke-width:1.0;"/><polygon fill="none" points="475.21,588.1,481.5357,605.9881,491.0034,598.6151,475.21,588.1" style="stroke:#181818;stroke-width:1.0;"/></g><!--reverse link User to Address--><g id="link_User_Address"><path codeLine="70" d="M311.6901,799.6467 C322.5201,818.6567 328.47,829.07 339.81,848.96 " fill="none" id="User-backto-Address" style="stroke:#181818;stroke-width:1.0;"/><polygon fill="#181818" points="305.75,789.22,305.2445,796.4134,311.6901,799.6467,312.1956,792.4533,305.75,789.22" style="stroke:#181818;stroke-width:1.0;"/></g><!--reverse link Database to Person--><g id="link_Database_Person"><path codeLine="71" d="M367.0273,398.0391 C376.0073,417.7391 380.58,427.79 389.33,446.99 " fill="none" id="Database-backto-Person" style="stroke:#181818;stroke-width:1.0;"/><polygon fill="#181818" points="362.05,387.12,360.899,394.2386,367.0273,398.0391,368.1784,390.9204,362.05,387.12" style="stroke:#181818;stroke-width:1.0;"/></g><!--reverse link MainWindow to Database--><g id="link_MainWindow_Database"><path codeLine="72" d="M326,179.01 C326,198.51 326,207.39 326,226.89 " fill="none" id="MainWindow-backto-Database" style="stroke:#181818;stroke-width:1.0;"/><polygon fill="#181818" points="326,167.01,322,173.01,326,179.01,330,173.01,326,167.01" style="stroke:#181818;stroke-width:1.0;"/></g><!--reverse link Authentication to Person--><g id="link_Authentication_Person"><path codeLine="73" d="M492.0249,360.6101 C479.3549,388.4201 467.37,414.73 452.68,446.97 " fill="none" id="Authentication-backto-Person" style="stroke:#181818;stroke-width:1.0;"/><polygon fill="#181818" points="497,349.69,490.8724,353.4917,492.0249,360.6101,498.1525,356.8084,497,349.69" style="stroke:#181818;stroke-width:1.0;"/></g><!--SRC=[VLHDRvmm4BtpAtnQ0M5FlKLHfJHjf4ffrIPfUwmCdYMMmAQUWStswxVN631UeDa3MllDiz_CF4zHSKJs2GngnNv5pFxs34bSNY8PgKfsa0Rf8wzX0xFS_q6DFVQeZN3G1TCD64xQNCMQdi0ahD0AQGGFHe8I0rrRFl1wDpCi1JFME8L9z2UA2YVv2u8P1L-m4kYwi_4bt7EoryVd5_Im40OGry2DLiGBUgyEUWqEfssmxg6JS9m1B-kXWKBoIY9vSPNcujRe-e4uGGsAOlnHIO9Ntv5gIbd_JSPOBiGD6987MTYhjOgBS9NC0gPxVWvXwxH2tZ81NF7nR1cK-LhKSc6C3eg-Bq6tNxF6o4vMK0AELpXUxCsJUQzatXfPm9eoawffAPvMGc9JyTD2VIwLUDGlLJEpvz3EVWGyhpeqEc7Jx8Lk5PdJ1cAWj8NPeaZQYkzj3BG1FEaMjnuCRxYXFXzVmD6mi_Atd7ZE4MRfG-Of4_d8ca9y2V-kTgIIv5eDAmXv1u_QRpUWcmgIXOq3bbVsWKlrpPPR7xssAMmtYTkpptSyXofbkYNRPRUOaAzlzFCTFraaPRKzRFY_uRfXKgNMSKxSg6s-FnQvJptO3HtTsWcaQ7mQmIijhM5z9Un0UcU5L0Dpd8zNl_TxDtWYDttSSdxmPr7E_qDOwfQkcv5lORyvn4T1yVhTAIHQ20qO_m00]--></g></svg>